<?xml version="1.0" encoding="UTF-8"?>
<svg version="1.1" xmlns="http://www.w3.org/2000/svg" width="204" height="192">
<path d="M0 0 C67.32 0 134.64 0 204 0 C204 63.36 204 126.72 204 192 C136.68 192 69.36 192 0 192 C0 128.64 0 65.28 0 0 Z " fill="#F7F7F6" transform="translate(0,0)"/>
<path d="M0 0 C5.46406599 3.8457886 9.24017394 7.90538412 12 14 C12 15.32 12 16.64 12 18 C12.66 18 13.32 18 14 18 C15.23033751 23.46073493 15.1839739 28.73773602 15.1875 34.3125 C15.19974609 35.31990234 15.21199219 36.32730469 15.22460938 37.36523438 C15.24756485 49.11078547 12.55411101 58.12505223 4.41015625 66.875 C-3.34610836 73.71358663 -12.39510538 74.83078729 -22.328125 74.375 C-26.76321468 73.92205467 -30.03052501 72.9847375 -34 71 C-34 70.34 -34 69.68 -34 69 C-34.5878125 68.90847656 -35.175625 68.81695312 -35.78125 68.72265625 C-41.12402732 66.9824911 -44.78421074 60.78197032 -47.3125 56 C-52.88085016 44.71212276 -52.5805074 29.64596892 -49.10546875 17.78515625 C-45.98143941 9.91436856 -41.6422186 2.97194256 -34 -1 C-32.865625 -1.598125 -31.73125 -2.19625 -30.5625 -2.8125 C-21.00325935 -6.05481554 -8.60034402 -5.24035299 0 0 Z " fill="#FBFCFC" transform="translate(98,60)"/>
<path d="M0 0 C2 1 2 1 2.82421875 3.29296875 C3.10910156 4.24816406 3.39398438 5.20335938 3.6875 6.1875 C6.02329405 12.79274911 8.96888924 15.89130435 15.11328125 19.10546875 C20.21346903 21.34269398 25.46767385 22.61813447 30.875 23.875 C39.25377492 25.85041941 47.96668485 28.55419621 54.25 34.75 C56.71382304 39.32567137 57.06166679 42.92080277 56 48 C53.45258285 53.93779779 49.97971456 57.80656846 44.0078125 60.29296875 C33.27439958 64.07263361 25.52605216 63.15073706 15 59 C10.01467254 56.21972122 7.35011253 52.06178084 5 47 C4.75 44.0625 4.75 44.0625 5 42 C3.02 42 1.04 42 -1 42 C-1 43.32 -1 44.64 -1 46 C-1.66 46 -2.32 46 -3 46 C-6.21461552 39.57076895 -3.93861216 29.11872451 -3.625 22 C-3.59422363 21.17508057 -3.56344727 20.35016113 -3.53173828 19.50024414 C-3.49290527 18.71641357 -3.45407227 17.93258301 -3.4140625 17.125 C-3.3826416 16.42632812 -3.3512207 15.72765625 -3.31884766 15.0078125 C-3 13 -3 13 -1.94287109 10.8984375 C-0.7417053 8.9658545 -0.7417053 8.9658545 -1.5 6.5 C-2.09136739 3.54316304 -1.57321564 2.4986366 0 0 Z " fill="#FAFAF9" transform="translate(121,72)"/>
<path d="M0 0 C0.76441406 -0.00773437 1.52882812 -0.01546875 2.31640625 -0.0234375 C12.66830252 0.01171325 20.55302153 2.94126461 28.109375 10.140625 C38.89424785 21.84728185 39.76316802 34.95124348 39.22558594 50.21923828 C38.73144539 60.1956002 35.15723449 68.62768241 28.5625 76.1875 C27.758125 76.868125 26.95375 77.54875 26.125 78.25 C25.361875 78.930625 24.59875 79.61125 23.8125 80.3125 C14.31279697 87.16112312 4.6047052 88.3849991 -6.875 87.25 C-10.21610406 86.35190378 -12.91702876 85.01494334 -15.875 83.25 C-17.07125 82.693125 -18.2675 82.13625 -19.5 81.5625 C-24.13438351 78.7797293 -26.95830003 74.71161868 -29.875 70.25 C-30.75285156 69.01636719 -30.75285156 69.01636719 -31.6484375 67.7578125 C-38.41838605 56.28386214 -38.13841084 39.54593551 -35.34033203 26.81787109 C-34.08769072 22.90914008 -32.20365835 19.60617186 -29.875 16.25 C-29.49214844 15.56808594 -29.10929687 14.88617188 -28.71484375 14.18359375 C-22.50065058 3.87115132 -11.42424256 -0.11443315 0 0 Z M-22.875 13.25 C-31.69437225 25.01638608 -32.87733907 38.03627519 -31.875 52.25 C-30.38599956 61.64311113 -25.31137416 71.22050743 -17.875 77.25 C-16.885 77.25 -15.895 77.25 -14.875 77.25 C-14.875 77.91 -14.875 78.57 -14.875 79.25 C-6.36537902 83.50481049 3.3494639 83.56898056 12.51171875 81.4765625 C20.92461479 78.43887148 26.75708399 72.91876952 31.30859375 65.2578125 C34.63325904 58.09944226 34.27909019 50.39155295 34.25 42.6875 C34.25386719 41.65947266 34.25773437 40.63144531 34.26171875 39.57226562 C34.26042969 38.57775391 34.25914063 37.58324219 34.2578125 36.55859375 C34.25612061 35.20979126 34.25612061 35.20979126 34.25439453 33.83374023 C34.12333145 31.21668248 33.70379488 28.80227276 33.125 26.25 C32.465 26.25 31.805 26.25 31.125 26.25 C31.08375 25.425 31.0425 24.6 31 23.75 C29.09430788 16.1272315 23.87451809 11.63102804 17.46875 7.4765625 C4.64309821 0.76447139 -12.7635327 2.67892055 -22.875 13.25 Z " fill="#1368E8" transform="translate(78.875,51.75)"/>
<path d="M0 0 C0.83724609 0.00918457 1.67449219 0.01836914 2.53710938 0.02783203 C10.34478966 0.25684519 16.19874949 2.17416633 22.6875 6.5 C22.6875 7.16 22.6875 7.82 22.6875 8.5 C23.6775 8.83 24.6675 9.16 25.6875 9.5 C25.6875 10.16 25.6875 10.82 25.6875 11.5 C26.3475 11.5 27.0075 11.5 27.6875 11.5 C29.00376692 15.11973402 29.6875 17.59567131 29.6875 21.5 C27.4375 21.5625 27.4375 21.5625 24.6875 20.5 C23.43794318 18.30235287 22.55244467 16.09768155 21.6796875 13.7265625 C20.02311628 10.00906016 18.0784837 8.70699137 14.5 6.8125 C10.21643299 5.29123321 5.93804235 5.20930544 1.4375 5.1875 C0.73987549 5.18210205 0.04225098 5.1767041 -0.67651367 5.17114258 C-4.46254239 5.22359328 -7.02513545 5.67449447 -10.3125 7.5 C-11.6325 7.5 -12.9525 7.5 -14.3125 7.5 C-14.6425 8.49 -14.9725 9.48 -15.3125 10.5 C-16.64583333 11.83333333 -17.97916667 13.16666667 -19.3125 14.5 C-20.84805838 19.10667513 -20.85345266 23.68912764 -20.3125 28.5 C-18.4156157 31.15563802 -17.16764945 32.07242527 -14.3125 33.5 C-14.3125 34.16 -14.3125 34.82 -14.3125 35.5 C-8.38545559 37.38069679 -2.41915373 38.98073327 3.625 40.4375 C10.16096305 42.02216274 16.43182319 44.00833212 22.6875 46.5 C22.6875 47.16 22.6875 47.82 22.6875 48.5 C23.450625 48.70625 24.21375 48.9125 25 49.125 C28.77329077 51.05552086 29.36427043 52.46066763 30.6875 56.5 C31.44266299 63.86542528 30.78555526 69.78754694 27.6875 76.5 C27.0275 76.5 26.3675 76.5 25.6875 76.5 C25.48125 77.0775 25.275 77.655 25.0625 78.25 C22.46599613 82.49882452 18.75286651 84.17807403 14.09375 85.5859375 C4.79759236 87.76862496 -7.7224166 88.80436259 -16.1875 83.875 C-18.3984375 82.2109375 -18.3984375 82.2109375 -20.3125 80.5 C-21.22902344 79.74589844 -21.22902344 79.74589844 -22.1640625 78.9765625 C-25.62933338 75.87259949 -27.34950603 73.02607165 -28.3125 68.5 C-28.4375 65.625 -28.4375 65.625 -28.3125 63.5 C-26.9925 63.5 -25.6725 63.5 -24.3125 63.5 C-23.9 64.716875 -23.4875 65.93375 -23.0625 67.1875 C-20.88097468 72.95732864 -17.97865882 76.84775545 -12.3125 79.5 C-1.28130279 83.211271 6.9154789 83.21946301 17.6875 78.5 C20.77548674 76.24942433 20.77548674 76.24942433 22.6875 73.5 C23.285625 72.778125 23.88375 72.05625 24.5 71.3125 C26.31818286 67.00627744 26.41284716 63.09633253 25.6875 58.5 C22.35048064 51.82596129 15.47825095 49.58320185 8.74658203 47.15966797 C5.17667209 46.01597617 1.53650179 45.22796431 -2.125 44.4375 C-12.22775353 42.24798964 -19.2563564 39.08674646 -25.3125 30.5 C-27.54446001 26.03607998 -27.00620821 19.86257197 -25.62890625 15.171875 C-20.80755836 4.68894431 -11.0441832 -0.24900094 0 0 Z " fill="#C5EE22" transform="translate(150.3125,51.5)"/>
<path d="M0 0 C7.92 0 15.84 0 24 0 C24 63.36 24 126.72 24 192 C17.07 192 10.14 192 3 192 C4.65 190.02 6.3 188.04 8 186 C8.66 186 9.32 186 10 186 C10.25910156 185.44699219 10.51820313 184.89398438 10.78515625 184.32421875 C12.65425539 180.74828952 14.98384642 177.48171252 17.24609375 174.14453125 C21.84295995 165.90293372 22.43947204 158.35311832 22.40405273 149.01977539 C22.41434761 147.11069145 22.41434761 147.11069145 22.42485046 145.16304016 C22.44268449 141.69599596 22.44163213 138.22920619 22.43590808 134.76213002 C22.43280209 131.85725404 22.43892424 128.95242595 22.44494683 126.04755682 C22.45895831 119.18962243 22.45745894 112.33181271 22.44604492 105.47387695 C22.43456607 98.4215624 22.44864289 91.36962825 22.4754414 84.3173638 C22.49766014 78.24061615 22.50422196 72.16398737 22.49836498 66.08720201 C22.49500901 62.46740025 22.49731915 58.84784225 22.51461601 55.22807503 C22.53308001 51.18834794 22.51883495 47.14935219 22.50170898 43.10961914 C22.51137695 41.92541382 22.52104492 40.7412085 22.53100586 39.52111816 C22.44187695 29.44818197 19.71599498 22.16570711 14 14 C14 13.34 14 12.68 14 12 C12.35 11.67 10.7 11.34 9 11 C8.67 10.01 8.34 9.02 8 8 C8.33 7.34 8.66 6.68 9 6 C8.2575 5.71125 7.515 5.4225 6.75 5.125 C4.43260203 4.17697356 2.22082885 3.15154089 0 2 C0 1.34 0 0.68 0 0 Z " fill="#FBFBFB" transform="translate(180,0)"/>
<path d="M0 0 C0.33 0 0.66 0 1 0 C1 1.65 1 3.3 1 5 C1.66 5 2.32 5 3 5 C3 3.35 3 1.7 3 0 C3.33 0 3.66 0 4 0 C7.11191299 15.63425087 5.79962351 31.53918978 -3 45 C-5.5625 47.9375 -5.5625 47.9375 -8 50 C-8.763125 50.680625 -9.52625 51.36125 -10.3125 52.0625 C-17.60272465 57.31824336 -23.93413074 59.17929737 -32.875 59.1875 C-33.91720703 59.20586914 -33.91720703 59.20586914 -34.98046875 59.22460938 C-39.35582526 59.23696914 -43.00682979 58.83783522 -47 57 C-47.495 55.515 -47.495 55.515 -48 54 C-47.34 54 -46.68 54 -46 54 C-46 53.34 -46 52.68 -46 52 C-44.99646484 52.23589844 -44.99646484 52.23589844 -43.97265625 52.4765625 C-33.20554276 54.37247999 -22.38782814 54.01211579 -13 48 C-5.84081184 41.79227607 -2.32835137 35.33207968 -1 26 C-0.86018156 23.91086971 -0.75610778 21.81911029 -0.68359375 19.7265625 C-0.62075195 17.99599609 -0.62075195 17.99599609 -0.55664062 16.23046875 C-0.51732422 15.04066406 -0.47800781 13.85085937 -0.4375 12.625 C-0.37272461 10.80548828 -0.37272461 10.80548828 -0.30664062 8.94921875 C-0.20094487 5.96624968 -0.09884679 2.98320258 0 0 Z " fill="#86DD4A" transform="translate(113,80)"/>
<path d="M0 0 C0.83724609 0.00918457 1.67449219 0.01836914 2.53710938 0.02783203 C10.34478966 0.25684519 16.19874949 2.17416633 22.6875 6.5 C22.6875 7.16 22.6875 7.82 22.6875 8.5 C23.6775 8.83 24.6675 9.16 25.6875 9.5 C25.6875 10.16 25.6875 10.82 25.6875 11.5 C26.3475 11.5 27.0075 11.5 27.6875 11.5 C29.00376692 15.11973402 29.6875 17.59567131 29.6875 21.5 C27.4375 21.5625 27.4375 21.5625 24.6875 20.5 C23.43794318 18.30235287 22.55244467 16.09768155 21.6796875 13.7265625 C20.02311628 10.00906016 18.0784837 8.70699137 14.5 6.8125 C10.21643299 5.29123321 5.93804235 5.20930544 1.4375 5.1875 C0.73987549 5.18210205 0.04225098 5.1767041 -0.67651367 5.17114258 C-4.46254239 5.22359328 -7.02513545 5.67449447 -10.3125 7.5 C-11.6325 7.5 -12.9525 7.5 -14.3125 7.5 C-14.6425 8.49 -14.9725 9.48 -15.3125 10.5 C-16.64583333 11.83333333 -17.97916667 13.16666667 -19.3125 14.5 C-20.84805838 19.10667513 -20.85345266 23.68912764 -20.3125 28.5 C-18.4156157 31.15563802 -17.16764945 32.07242527 -14.3125 33.5 C-14.3125 34.16 -14.3125 34.82 -14.3125 35.5 C-12.9925 36.16 -11.6725 36.82 -10.3125 37.5 C-12.8125 38.9375 -12.8125 38.9375 -16.3125 39.5 C-20.67809994 36.84021781 -24.48048179 33.34305804 -26.3125 28.5 C-27.25532038 21.43981021 -26.59414824 15.30607408 -22.3125 9.5 C-15.39700707 2.73818469 -9.50990673 -0.21440931 0 0 Z " fill="#3FC497" transform="translate(150.3125,51.5)"/>
<path d="M0 0 C7.92 0 15.84 0 24 0 C19 5 19 5 16 6 C16 6.66 16 7.32 16 8 C15.29875 8.515625 14.5975 9.03125 13.875 9.5625 C8.41988938 14.18748509 4.89374398 20.11365827 3 27 C2.67 27.33 2.34 27.66 2 28 C1.76807135 29.51469448 1.58784762 31.03754562 1.4375 32.5625 C1.35371094 33.38878906 1.26992188 34.21507812 1.18359375 35.06640625 C1.12300781 35.70449219 1.06242188 36.34257813 1 37 C0.67 37 0.34 37 0 37 C0 24.79 0 12.58 0 0 Z " fill="#FDFDFD" transform="translate(0,0)"/>
<path d="M0 0 C1.32 0 2.64 0 4 0 C4 20.79 4 41.58 4 63 C2.68 63 1.36 63 0 63 C0 42.21 0 21.42 0 0 Z " fill="#1E9BE2" transform="translate(30,74)"/>
<path d="M0 0 C0.33 0.66 0.66 1.32 1 2 C1.66 2 2.32 2 3 2 C4.65625 4.4140625 4.65625 4.4140625 6.5 7.625 C7.41265625 9.19121094 7.41265625 9.19121094 8.34375 10.7890625 C10.91499835 15.77388831 12.24955489 20.07433544 12.25396729 25.69238281 C12.26242676 27.35775085 12.26242676 27.35775085 12.27105713 29.0567627 C12.26700867 30.26006226 12.26296021 31.46336182 12.25878906 32.703125 C12.2622937 33.98183472 12.26579834 35.26054443 12.26940918 36.57800293 C12.27850176 40.07384559 12.27500191 43.56956978 12.26865101 47.06541443 C12.26357477 50.73013622 12.26828697 54.39484811 12.27142334 58.05957031 C12.27505825 64.21290908 12.27027635 70.36619978 12.26074219 76.51953125 C12.24985853 83.62572202 12.25338445 90.731798 12.264395 97.83798599 C12.27348141 103.94771428 12.27474653 110.05740809 12.26951766 116.16714096 C12.2664054 119.81249624 12.26596813 123.45779763 12.27259064 127.10314941 C12.27945955 131.16779336 12.26992926 135.23224053 12.25878906 139.296875 C12.26283752 140.50017456 12.26688599 141.70347412 12.27105713 142.9432373 C12.26541748 144.05348267 12.25977783 145.16372803 12.25396729 146.30761719 C12.25321323 147.26770691 12.25245918 148.22779663 12.25168228 149.21697998 C11.96596981 152.37629466 11.10332485 155.03550437 10 158 C9.34 157.34 8.68 156.68 8 156 C8.32466248 155.25809418 8.64932495 154.51618835 8.98382568 153.75180054 C10.41478675 148.46857263 10.27823508 143.42151723 10.25878906 137.97119141 C10.2622937 136.76396927 10.26579834 135.55674713 10.26940918 134.3129425 C10.27668857 131.01319044 10.27500257 127.71369016 10.26865101 124.41395235 C10.26357107 120.9516953 10.26828821 117.48944866 10.27142334 114.02719116 C10.27505816 108.21179281 10.27027763 102.39644531 10.26074219 96.58105469 C10.24986879 89.87252741 10.25337702 83.16412182 10.264395 76.45559752 C10.27349394 70.68298959 10.27474013 64.91041813 10.26951766 59.13780534 C10.26641094 55.69582972 10.26595251 52.25391113 10.27259064 48.81193924 C10.27948209 44.9704446 10.26990885 41.12908431 10.25878906 37.28759766 C10.26283752 36.15694382 10.26688599 35.02628998 10.27105713 33.8613739 C10.23891282 27.8533446 9.63135016 22.77378936 8 17 C8 15.68 8 14.36 8 13 C7.34 13 6.68 13 6 13 C4.4921875 10.91796875 4.4921875 10.91796875 2.875 8.1875 C2.33617187 7.29417969 1.79734375 6.40085937 1.2421875 5.48046875 C0 3 0 3 0 0 Z " fill="#E0E0E0" transform="translate(191,10)"/>
<path d="M0 0 C-3.65046063 4.64604081 -8.39223703 6.62968198 -14 8 C-22.40541474 8.76033076 -30.29546308 8.85226846 -38 5 C-38 4.34 -38 3.68 -38 3 C-37.01 3 -36.02 3 -35 3 C-35 3.66 -35 4.32 -35 5 C-34.21238281 4.7834375 -33.42476563 4.566875 -32.61328125 4.34375 C-25.48352798 2.52123319 -19.13316747 1.73523667 -11.77734375 2.08984375 C-7.40612353 1.94844 -4.56057648 -0.25336536 0 0 Z " fill="#F4F8F6" transform="translate(102,126)"/>
<path d="M0 0 C0.33 0 0.66 0 1 0 C1 1.65 1 3.3 1 5 C1.66 5 2.32 5 3 5 C3 3.35 3 1.7 3 0 C3.33 0 3.66 0 4 0 C4.99874253 5.0017026 5.18326228 9.79821366 5.1875 14.875 C5.19974609 15.63941406 5.21199219 16.40382813 5.22460938 17.19140625 C5.23800019 22.44953425 4.65676989 26.99116081 3 32 C2.01 32.66 1.02 33.32 0 34 C-1.48700668 31.02598664 -1.00619932 28.05181074 -0.87890625 24.8046875 C-0.85529526 24.09724396 -0.83168427 23.38980042 -0.80735779 22.66091919 C-0.73071166 20.39874245 -0.64669188 18.13690727 -0.5625 15.875 C-0.50928023 14.3424647 -0.45653982 12.80991266 -0.40429688 11.27734375 C-0.27509533 7.51801239 -0.13927963 3.75897092 0 0 Z " fill="#7CDD40" transform="translate(113,80)"/>
<path d="M0 0 C0.67289063 0.16113281 1.34578125 0.32226562 2.0390625 0.48828125 C6.59656372 1.62325742 10.72548959 3.17698093 15 5.125 C14.67 5.785 14.34 6.445 14 7.125 C-8.42718447 4.91140777 -8.42718447 4.91140777 -18 0.125 C-18 -0.535 -18 -1.195 -18 -1.875 C-12.18720007 -3.81259998 -5.81286268 -1.45878355 0 0 Z " fill="#ACED2E" transform="translate(154,91.875)"/>
<path d="M0 0 C5.29031405 4.02490752 8.84110938 8.1554608 12 14 C12.37253906 14.64195313 12.74507812 15.28390625 13.12890625 15.9453125 C14.15515604 18.36597344 14.20196794 20.13309001 14.125 22.75 C14.10695313 23.54921875 14.08890625 24.3484375 14.0703125 25.171875 C14.04710938 25.77515625 14.02390625 26.3784375 14 27 C13.34 27 12.68 27 12 27 C10 25 10 25 9.875 22.375 C9.91625 21.59125 9.9575 20.8075 10 20 C9.34 20 8.68 20 8 20 C7.5875 18.96875 7.175 17.9375 6.75 16.875 C4.41488382 11.44832156 1.33625774 7.02652505 -3 3 C-2.01 3 -1.02 3 0 3 C0 2.01 0 1.02 0 0 Z " fill="#1DB0C1" transform="translate(102,58)"/>
<path d="M0 0 C1.32 0 2.64 0 4 0 C4.61875 1.8253125 4.61875 1.8253125 5.25 3.6875 C7.89171932 10.62201321 11.56729794 13.65994316 18 17 C18 17.66 18 18.32 18 19 C15.328125 19.75390625 15.328125 19.75390625 12 20 C9.296875 18.33984375 9.296875 18.33984375 6.75 15.9375 C5.89921875 15.16277344 5.0484375 14.38804687 4.171875 13.58984375 C0.6756821 9.42082236 -0.31600138 5.37202347 0 0 Z " fill="#AAEA33" transform="translate(122,115)"/>
<path d="M0 0 C-0.99 0.33 -1.98 0.66 -3 1 C-2.67 1.66 -2.34 2.32 -2 3 C-8.93 2.505 -8.93 2.505 -16 2 C-16 3.32 -16 4.64 -16 6 C-21.60563042 6.82622671 -26.42289352 7.06795656 -32 6 C-32 4.68 -32 3.36 -32 2 C-29.08568112 1.17826854 -26.39778681 0.83444298 -23.375 0.71875 C-22.50359375 0.68136719 -21.6321875 0.64398438 -20.734375 0.60546875 C-18.91145833 0.53515625 -17.08854167 0.46484375 -15.265625 0.39453125 C-14.39421875 0.35714844 -13.5228125 0.31976563 -12.625 0.28125 C-11.83351562 0.25095703 -11.04203125 0.22066406 -10.2265625 0.18945312 C-7.99292267 0.06024449 -7.99292267 0.06024449 -5.8515625 -0.54492188 C-3.59820731 -1.09875284 -2.18225377 -0.70143871 0 0 Z " fill="#F6F3F4" transform="translate(168,137)"/>
<path d="M0 0 C4.62609198 -0.3227506 7.28026121 0.15549386 11 3 C11 3.66 11 4.32 11 5 C11.99 5.33 12.98 5.66 14 6 C14 6.66 14 7.32 14 8 C14.66 8 15.32 8 16 8 C17.31626692 11.61973402 18 14.09567131 18 18 C15.75 18.0625 15.75 18.0625 13 17 C11.75044318 14.80235287 10.86494467 12.59768155 9.9921875 10.2265625 C8.94062993 7.86676796 7.99487442 6.62052762 6 5 C2.89992799 3.79950593 2.89992799 3.79950593 0 3 C0 2.01 0 1.02 0 0 Z " fill="#ABEA2F" transform="translate(162,55)"/>
<path d="M0 0 C0.66 0 1.32 0 2 0 C2.33 0.66 2.66 1.32 3 2 C3.66 1.34 4.32 0.68 5 0 C5.47050781 0.56589844 5.94101562 1.13179688 6.42578125 1.71484375 C7.04839844 2.44832031 7.67101563 3.18179688 8.3125 3.9375 C8.92738281 4.66839844 9.54226562 5.39929688 10.17578125 6.15234375 C11.95975519 8.23820366 11.95975519 8.23820366 15 9 C15 9.66 15 10.32 15 11 C15.99 11.33 16.98 11.66 18 12 C17.67 13.32 17.34 14.64 17 16 C9.06938111 13.05434156 4.65162723 9.06457507 0 2 C0 1.34 0 0.68 0 0 Z " fill="#24B6BF" transform="translate(49,120)"/>
<path d="M0 0 C0.78375 0.680625 1.5675 1.36125 2.375 2.0625 C2.375 3.0525 2.375 4.0425 2.375 5.0625 C-1.15496871 4.62125391 -3.9984388 3.91059269 -7.3125 2.5625 C-12.27643788 0.58656356 -17.3331489 0.34460236 -22.625 0.0625 C-22.625 -0.2675 -22.625 -0.5975 -22.625 -0.9375 C-14.67006407 -4.51145672 -7.61440578 -4.62239221 0 0 Z " fill="#239CF1" transform="translate(99.625,55.9375)"/>
<path d="M0 0 C5.28 0.66 10.56 1.32 16 2 C15.67 2.99 15.34 3.98 15 5 C17.97 5.495 17.97 5.495 21 6 C21 6.33 21 6.66 21 7 C18.4580411 7.05434116 15.91726318 7.0938339 13.375 7.125 C12.66214844 7.14175781 11.94929688 7.15851563 11.21484375 7.17578125 C6.78283469 7.21644188 3.10014642 6.9049911 -1 5 C-1.33 4.01 -1.66 3.02 -2 2 C-1.34 2 -0.68 2 0 2 C0 1.34 0 0.68 0 0 Z " fill="#8EDD71" transform="translate(67,132)"/>
<path d="M0 0 C0.66 0.33 1.32 0.66 2 1 C1 4 1 4 -0.6015625 5.09765625 C-9.09920512 9.14962098 -16.60023192 11.27873165 -26 9 C-26 8.67 -26 8.34 -26 8 C-20.72 7.34 -15.44 6.68 -10 6 C-10 5.01 -10 4.02 -10 3 C-6.7 2.67 -3.4 2.34 0 2 C0 1.34 0 0.68 0 0 Z " fill="#F5F6EC" transform="translate(170,125)"/>
<path d="M0 0 C0.33 0 0.66 0 1 0 C1.0093457 0.64960693 1.01869141 1.29921387 1.02832031 1.96850586 C1.08255083 4.95889339 1.1660915 7.94780375 1.25 10.9375 C1.26417969 11.95908203 1.27835938 12.98066406 1.29296875 14.03320312 C1.48977999 20.19339485 2.32848466 24.79870236 5.24902344 30.26000977 C5.4968457 30.83420654 5.74466797 31.40840332 6 32 C5.67 32.66 5.34 33.32 5 34 C4.05125 33.484375 3.1025 32.96875 2.125 32.4375 C1.09375 31.963125 0.0625 31.48875 -1 31 C-1.66 31.33 -2.32 31.66 -3 32 C-3 30.02 -3 28.04 -3 26 C-2.34 26 -1.68 26 -1 26 C-0.67 17.42 -0.34 8.84 0 0 Z " fill="#E0EDF4" transform="translate(42,86)"/>
<path d="M0 0 C2.56278699 -0.05420701 5.12441483 -0.09377007 7.6875 -0.125 C8.40873047 -0.14175781 9.12996094 -0.15851562 9.87304688 -0.17578125 C14.04876781 -0.21391569 17.2494138 0.1210081 21 2 C20.01 2.33 19.02 2.66 18 3 C18 3.66 18 4.32 18 5 C15.04081802 4.88641524 12.08323217 4.75966914 9.125 4.625 C8.28324219 4.5940625 7.44148437 4.563125 6.57421875 4.53125 C5.36572266 4.47324219 5.36572266 4.47324219 4.1328125 4.4140625 C3.38918457 4.3826416 2.64555664 4.3512207 1.87939453 4.31884766 C0 4 0 4 -2 2 C-1.34 2 -0.68 2 0 2 C0 1.34 0 0.68 0 0 Z " fill="#48C970" transform="translate(144,52)"/>
<path d="M0 0 C0 0.66 0 1.32 0 2 C0.78375 2.20625 1.5675 2.4125 2.375 2.625 C5 4 5 4 6.3125 7.125 C6.6528125 8.548125 6.6528125 8.548125 7 10 C2.5644001 8.89110003 -0.40892947 7.74611276 -4 5 C-6.95997886 3.57157814 -9.97116431 2.27495861 -13 1 C-12.3915625 0.84789063 -11.783125 0.69578125 -11.15625 0.5390625 C-10.4446875 0.36117187 -9.733125 0.18328125 -9 0 C-5.59612776 -0.85096806 -3.35316742 -1.11772247 0 0 Z " fill="#BFEE32" transform="translate(173,98)"/>
<path d="M0 0 C0.99 0 1.98 0 3 0 C3.08692074 4.27070558 3.14036515 8.54118458 3.1875 12.8125 C3.22520508 14.63491211 3.22520508 14.63491211 3.26367188 16.49414062 C3.27333984 17.65751953 3.28300781 18.82089844 3.29296875 20.01953125 C3.3086792 21.09307861 3.32438965 22.16662598 3.34057617 23.27270508 C3 26 3 26 0 29 C0 19.43 0 9.86 0 0 Z " fill="#0374EB" transform="translate(30,75)"/>
<path d="M0 0 C0 0.66 0 1.32 0 2 C-0.66 2 -1.32 2 -2 2 C-2 2.99 -2 3.98 -2 5 C-3.66666667 6.66666667 -5.33333333 8.33333333 -7 10 C-7.70514846 12.14733927 -7.70514846 12.14733927 -8 14 C-8.99 14.495 -8.99 14.495 -10 15 C-10 14.34 -10 13.68 -10 13 C-10.99 13 -11.98 13 -13 13 C-13 13.99 -13 14.98 -13 16 C-13.66 16 -14.32 16 -15 16 C-12.8001776 9.76716987 -7.76751731 0 0 0 Z " fill="#E5F1F6" transform="translate(66,59)"/>
<path d="M0 0 C1.50325413 2.9320227 2.85935389 5.89526176 4.125 8.9375 C4.47820313 9.77152344 4.83140625 10.60554688 5.1953125 11.46484375 C6.03905252 14.1230344 6.14867148 16.22975484 6 19 C5.34 18.67 4.68 18.34 4 18 C4 17.34 4 16.68 4 16 C3.01 16 2.02 16 1 16 C-1.00274103 13.07291696 -2.09013771 10.96146892 -1.75390625 7.375 C-1.24224647 4.89080355 -0.67178095 2.44547598 0 0 Z " fill="#20AED9" transform="translate(47,104)"/>
<path d="M0 0 C0.88873597 3.09950623 1.18543782 5.98504367 1.31640625 9.203125 C1.35830078 10.1828125 1.40019531 11.1625 1.44335938 12.171875 C1.48267578 13.18765625 1.52199219 14.2034375 1.5625 15.25 C1.62727539 16.796875 1.62727539 16.796875 1.69335938 18.375 C1.79925682 20.9165387 1.90133443 23.45817196 2 26 C1.34 26 0.68 26 0 26 C0.33 28.31 0.66 30.62 1 33 C-1 31 -1 31 -1.24291992 28.25024414 C-1.23881104 27.10676514 -1.23470215 25.96328613 -1.23046875 24.78515625 C-1.22853516 23.54185547 -1.22660156 22.29855469 -1.22460938 21.01757812 C-1.21236328 19.71240234 -1.20011719 18.40722656 -1.1875 17.0625 C-1.1865332 15.11053711 -1.1865332 15.11053711 -1.18554688 13.11914062 C-1.14034598 3.42103795 -1.14034598 3.42103795 0 0 Z " fill="#2D98F1" transform="translate(44,78)"/>
<path d="M0 0 C0.33 0 0.66 0 1 0 C1 1.65 1 3.3 1 5 C1.66 5 2.32 5 3 5 C3 3.35 3 1.7 3 0 C3.33 0 3.66 0 4 0 C4.33 3.63 4.66 7.26 5 11 C4.01 11.66 3.02 12.32 2 13 C1.66887699 15.74568371 1.48769486 18.31134373 1.4375 21.0625 C1.3751661 23.73362309 1.23327167 26.33361621 1 29 C0.34 29.33 -0.32 29.66 -1 30 C-0.67 20.1 -0.34 10.2 0 0 Z " fill="#75D279" transform="translate(113,80)"/>
<path d="M0 0 C0.99 0 1.98 0 3 0 C3.33 1.32 3.66 2.64 4 4 C3.34 4 2.68 4 2 4 C1.7525 4.61875 1.505 5.2375 1.25 5.875 C-0.23101402 8.39272383 -1.25177691 9.08392564 -4 10 C-4.99 9.67 -5.98 9.34 -7 9 C-9.3406065 9.27769908 -11.67624308 9.60539977 -14 10 C-11.63950525 8.42633683 -9.54973396 7.29362807 -7 6.125 C-3.70920238 4.52472182 -2.07156635 3.05283462 0 0 Z " fill="#D8F147" transform="translate(174,124)"/>
<path d="M0 0 C0.74507812 0.00451172 1.49015625 0.00902344 2.2578125 0.01367188 C4.0885764 0.02540754 5.91929873 0.0433415 7.75 0.0625 C6.75 2.0625 6.75 2.0625 3.5 3.25 C-2.38879979 4.63623207 -8.30556316 3.73306147 -14.25 3.0625 C-10.31886197 -0.86863803 -5.26465746 -0.06045985 0 0 Z " fill="#0B7AEA" transform="translate(78.25,51.9375)"/>
<path d="M0 0 C2.92879371 0.62759865 5.36095629 1.58622659 8 3 C8 3.66 8 4.32 8 5 C9.32 5.66 10.64 6.32 12 7 C9.375 8.3125 9.375 8.3125 6 9 C2.625 6.875 2.625 6.875 0 4 C0 2.68 0 1.36 0 0 Z " fill="#7BD866" transform="translate(128,82)"/>
<path d="M0 0 C2 1 2 1 2 1 Z M-1 1 C-0.67 1.99 -0.34 2.98 0 4 C-1.16257223 5.33353874 -2.32996829 6.66313736 -3.51953125 7.97265625 C-6.57067927 12.15087742 -8.17201081 17.19277737 -10 22 C-10.66 22 -11.32 22 -12 22 C-12.33 22.66 -12.66 23.32 -13 24 C-11.82212362 14.87145806 -6.77933825 7.8670227 -1 1 Z " fill="#ECECEC" transform="translate(14,8)"/>
<path d="M0 0 C0.33 0 0.66 0 1 0 C2.29235715 4.91502758 2.11135517 9.77290102 2.0625 14.8125 C2.05798828 15.69615234 2.05347656 16.57980469 2.04882812 17.49023438 C2.03709866 19.66018559 2.01916495 21.83010172 2 24 C1.01 24 0.02 24 -1 24 C-1.18451025 7.1070615 -1.18451025 7.1070615 0 0 Z " fill="#028EEB" transform="translate(31,96)"/>
<path d="M0 0 C0.66 0 1.32 0 2 0 C2.24234375 0.56589844 2.4846875 1.13179688 2.734375 1.71484375 C3.06953125 2.44832031 3.4046875 3.18179688 3.75 3.9375 C4.07484375 4.66839844 4.3996875 5.39929688 4.734375 6.15234375 C5.86169372 8.18806644 5.86169372 8.18806644 8.140625 8.75390625 C8.75421875 8.83511719 9.3678125 8.91632813 10 9 C10 9.66 10 10.32 10 11 C10.99 11.33 11.98 11.66 13 12 C12.67 13.65 12.34 15.3 12 17 C6.37612444 12.86718078 2.79014058 8.42889536 0 2 C0 1.34 0 0.68 0 0 Z " fill="#E6F3F6" transform="translate(50,112)"/>
<path d="M0 0 C4.6175429 -0.32215416 7.33874929 0.07099943 11 3 C11.8125 5.1875 11.8125 5.1875 12 7 C11.01 7.33 10.02 7.66 9 8 C8.62875 7.54625 8.2575 7.0925 7.875 6.625 C5.45735315 4.52970606 3.04569398 3.87986715 0 3 C0 2.01 0 1.02 0 0 Z " fill="#85E23E" transform="translate(162,55)"/>
<path d="M0 0 C0.99 0.66 1.98 1.32 3 2 C2.01 3.485 2.01 3.485 1 5 C-0.45903258 4.69078116 -1.91720722 4.37751201 -3.375 4.0625 C-4.18710938 3.88847656 -4.99921875 3.71445313 -5.8359375 3.53515625 C-8 3 -8 3 -10 2 C-10 1.34 -10 0.68 -10 0 C-6.25105057 -1.24964981 -3.84864723 -0.75598428 0 0 Z " fill="#84E046" transform="translate(146,90)"/>
<path d="M0 0 C0.33 0 0.66 0 1 0 C1.02909769 4.06248489 1.04683174 8.12494286 1.0625 12.1875 C1.07087891 13.33798828 1.07925781 14.48847656 1.08789062 15.67382812 C1.09111328 16.78564453 1.09433594 17.89746094 1.09765625 19.04296875 C1.10289307 20.06414795 1.10812988 21.08532715 1.11352539 22.13745117 C1.00519467 24.86901616 0.61706868 27.34169374 0 30 C-0.33 30 -0.66 30 -1 30 C-1.33 27.36 -1.66 24.72 -2 22 C-1.34 22 -0.68 22 0 22 C-0.165 20.948125 -0.33 19.89625 -0.5 18.8125 C-1.24256673 12.91439851 -1.29622915 6.93329565 -1 1 C-0.67 0.67 -0.34 0.34 0 0 Z " fill="#067DF1" transform="translate(46,82)"/>
<path d="M0 0 C2.475 0.99 2.475 0.99 5 2 C5 2.66 5 3.32 5 4 C5.99 4.33 6.98 4.66 8 5 C7.67 6.32 7.34 7.64 7 9 C3.40608886 7.66511872 0.24509304 6.03977277 -3 4 C-2.01 2.68 -1.02 1.36 0 0 Z " fill="#3EBFAD" transform="translate(59,127)"/>
<path d="M0 0 C0.33 0 0.66 0 1 0 C1.33 2.64 1.66 5.28 2 8 C2.33 8 2.66 8 3 8 C3.33 5.36 3.66 2.72 4 0 C4.33 0 4.66 0 5 0 C5.33 4.29 5.66 8.58 6 13 C5.34 13 4.68 13 4 13 C3.67 13.99 3.34 14.98 3 16 C-1.01676824 11.14640505 -0.28136159 5.95027665 0 0 Z " fill="#63CA8F" transform="translate(124,69)"/>
<path d="M0 0 C0.33 0.66 0.66 1.32 1 2 C1.66 2 2.32 2 3 2 C7.39199986 8.21509414 10.70040601 14.4912347 12 22 C11.01 21.34 10.02 20.68 9 20 C8.3125 16.375 8.3125 16.375 8 13 C7.34 13 6.68 13 6 13 C4.4921875 10.91796875 4.4921875 10.91796875 2.875 8.1875 C2.33617187 7.29417969 1.79734375 6.40085937 1.2421875 5.48046875 C0 3 0 3 0 0 Z " fill="#E9E9E9" transform="translate(191,10)"/>
<path d="M0 0 C2.04795423 1.9626228 2.94976638 3.4277307 3.19921875 6.26953125 C3.18858877 8.51954383 3.12958525 10.75385562 3 13 C2.34 13 1.68 13 1 13 C-1 11 -1 11 -1.125 8.375 C-1.08375 7.59125 -1.0425 6.8075 -1 6 C-1.66 6 -2.32 6 -3 6 C-3.33 4.35 -3.66 2.7 -4 1 C-3.34 1 -2.68 1 -2 1 C-1.67 1.99 -1.34 2.98 -1 4 C-0.67 2.68 -0.34 1.36 0 0 Z " fill="#3AC5A0" transform="translate(113,72)"/>
<path d="M0 0 C1.485 0.99 1.485 0.99 3 2 C2.67 5.96 2.34 9.92 2 14 C1.01 14 0.02 14 -1 14 C-1.02694851 12.04174127 -1.04637218 10.08337774 -1.0625 8.125 C-1.07410156 7.03445312 -1.08570312 5.94390625 -1.09765625 4.8203125 C-1 2 -1 2 0 0 Z " fill="#3ACB86" transform="translate(126,64)"/>
<path d="M0 0 C1.45606519 4.52092968 0.27032841 7.51648796 -1 12 C-1.66 11.01 -2.32 10.02 -3 9 C-4.32 9.99 -5.64 10.98 -7 12 C-7.3125 9.6875 -7.3125 9.6875 -7 7 C-4.5 5.3125 -4.5 5.3125 -2 4 C-2 3.34 -2 2.68 -2 2 C-1.34 2 -0.68 2 0 2 C0 1.34 0 0.68 0 0 Z " fill="#EDF9EB" transform="translate(112,102)"/>
<path d="M0 0 C0 0.66 0 1.32 0 2 C-1.60256108 2.50512244 -3.20711792 3.00391627 -4.8125 3.5 C-6.15248047 3.91765625 -6.15248047 3.91765625 -7.51953125 4.34375 C-10 5 -10 5 -13 5 C-13.33 3.68 -13.66 2.36 -14 1 C-12.23103898 0.63659714 -10.45973374 0.28459117 -8.6875 -0.0625 C-7.70136719 -0.25972656 -6.71523437 -0.45695313 -5.69921875 -0.66015625 C-3 -1 -3 -1 0 0 Z " fill="#CFF02F" transform="translate(170,133)"/>
<path d="M0 0 C1.34173403 0.92543709 2.67320159 1.86577405 4 2.8125 C5.11375 3.59560547 5.11375 3.59560547 6.25 4.39453125 C6.8275 4.92433594 7.405 5.45414063 8 6 C8 6.99 8 7.98 8 9 C5.36 8.67 2.72 8.34 0 8 C0 5.36 0 2.72 0 0 Z " fill="#EFF8E0" transform="translate(125,127)"/>
<path d="M0 0 C1.62463842 -0.05395478 3.24978541 -0.09277195 4.875 -0.125 C5.77992187 -0.14820313 6.68484375 -0.17140625 7.6171875 -0.1953125 C10 0 10 0 12 2 C12 2.99 12 3.98 12 5 C7.43545749 4.45660208 4.0271824 3.20536179 0 1 C0 0.67 0 0.34 0 0 Z " fill="#13A5E6" transform="translate(90,56)"/>
<path d="M0 0 C1.65 0 3.3 0 5 0 C5.38218767 1.65614657 5.71395102 3.32457024 6 5 C5 6 5 6 2.4375 6.0625 C1.2309375 6.0315625 1.2309375 6.0315625 0 6 C-1.125 2.25 -1.125 2.25 0 0 Z " fill="#163ADF" transform="translate(29,52)"/>
<path d="M0 0 C-0.99 0.33 -1.98 0.66 -3 1 C-2.67 1.66 -2.34 2.32 -2 3 C-9.26 2.67 -16.52 2.34 -24 2 C-24 1.67 -24 1.34 -24 1 C-22.89140625 0.93941406 -21.7828125 0.87882813 -20.640625 0.81640625 C-19.1770718 0.73197049 -17.71353075 0.64732401 -16.25 0.5625 C-15.15558594 0.50352539 -15.15558594 0.50352539 -14.0390625 0.44335938 C-9.92984663 0.21667751 -9.92984663 0.21667751 -5.89746094 -0.54711914 C-3.62028221 -1.09063002 -2.20277717 -0.70803552 0 0 Z " fill="#E5F1B2" transform="translate(168,137)"/>
<path d="M0 0 C1.07765625 0.10183594 2.1553125 0.20367187 3.265625 0.30859375 C4.08546875 0.39238281 4.9053125 0.47617188 5.75 0.5625 C5.75 1.2225 5.75 1.8825 5.75 2.5625 C1.79 2.5625 -2.17 2.5625 -6.25 2.5625 C-6.58 3.2225 -6.91 3.8825 -7.25 4.5625 C-8.57 3.9025 -9.89 3.2425 -11.25 2.5625 C-10.25 0.5625 -10.25 0.5625 -8.578125 -0.08984375 C-5.62553234 -0.53075104 -2.96886009 -0.29043197 0 0 Z " fill="#F3F6E9" transform="translate(149.25,128.4375)"/>
<path d="M0 0 C1.32 0 2.64 0 4 0 C5.125 6.625 5.125 6.625 4 10 C3.34 10 2.68 10 2 10 C0.39644899 6.49223216 -0.22036864 3.85645121 0 0 Z " fill="#95E431" transform="translate(122,115)"/>
<path d="M0 0 C5.75 0.75 5.75 0.75 8 3 C7.01 3 6.02 3 5 3 C5 3.66 5 4.32 5 5 C-1.93 4.505 -1.93 4.505 -9 4 C-9 3.67 -9 3.34 -9 3 C-6.36 3 -3.72 3 -1 3 C-0.67 2.01 -0.34 1.02 0 0 Z " fill="#6FD76D" transform="translate(157,52)"/>
<path d="M0 0 C-0.62759865 2.92879371 -1.58622659 5.36095629 -3 8 C-5.31 7.67 -7.62 7.34 -10 7 C-9.236875 6.401875 -8.47375 5.80375 -7.6875 5.1875 C-5.08664741 3.15995888 -5.08664741 3.15995888 -3.3125 1.25 C-2 0 -2 0 0 0 Z " fill="#E8F3DF" transform="translate(108,128)"/>
<path d="M0 0 C0.33 1.32 0.66 2.64 1 4 C1.66 4 2.32 4 3 4 C2.67 6.97 2.34 9.94 2 13 C1.34 11.68 0.68 10.36 0 9 C-0.33 10.65 -0.66 12.3 -1 14 C-1.33 14 -1.66 14 -2 14 C-1.85923685 12.0412957 -1.7122324 10.08303907 -1.5625 8.125 C-1.48128906 7.03445312 -1.40007813 5.94390625 -1.31640625 4.8203125 C-1 2 -1 2 0 0 Z " fill="#146DE1" transform="translate(46,74)"/>
<path d="M0 0 C0.99 0 1.98 0 3 0 C3 4.29 3 8.58 3 13 C2.01 13 1.02 13 0 13 C0 8.71 0 4.42 0 0 Z " fill="#035CEB" transform="translate(30,75)"/>
<path d="M0 0 C2.0625 1.6875 2.0625 1.6875 4 4 C3.90346814 7.86127424 2.46392937 10.10756118 0 13 C-1.28571429 4.57142857 -1.28571429 4.57142857 0 0 Z " fill="#E9F0F6" transform="translate(44,65)"/>
<path d="M0 0 C4.6875 3.61328125 4.6875 3.61328125 6 5 C6 5.99 6 6.98 6 8 C1.68607774 7.5206753 -0.16569547 6.2542015 -3 3 C-2.01 3 -1.02 3 0 3 C0 2.01 0 1.02 0 0 Z " fill="#20ACD2" transform="translate(102,58)"/>
<path d="M0 0 C3 1 3 1 3 1 Z M3 3 C-2.28305817 4.69057861 -7.67099269 4.29188056 -13 3 C-13 2.67 -13 2.34 -13 2 C-1.78301887 -0.18867925 -1.78301887 -0.18867925 3 3 Z " fill="#EEF3D8" transform="translate(157,131)"/>
<path d="M0 0 C1.625 1 1.625 1 3 3 C2.65009645 5.8158905 1.84980278 8.2716858 1 11 C-0.32 10.67 -1.64 10.34 -3 10 C-2.67 8.35 -2.34 6.7 -2 5 C-1.34 5 -0.68 5 0 5 C0 3.35 0 1.7 0 0 Z " fill="#D4F02E" transform="translate(178,115)"/>
<path d="M0 0 C3.057952 1.73559438 5.63379989 3.38472619 8 6 C7.67 6.99 7.34 7.98 7 9 C5.68 8.34 4.36 7.68 3 7 C3 6.34 3 5.68 3 5 C2.34 5 1.68 5 1 5 C0.34 3.68 -0.32 2.36 -1 1 C-0.67 0.67 -0.34 0.34 0 0 Z " fill="#F4FAE3" transform="translate(168,102)"/>
<path d="M0 0 C1.32 0.33 2.64 0.66 4 1 C4.33 2.98 4.66 4.96 5 7 C5.66 7 6.32 7 7 7 C7 8.32 7 9.64 7 11 C6.34 11 5.68 11 5 11 C4.67 10.34 4.34 9.68 4 9 C3.34 9 2.68 9 2 9 C1.855625 8.071875 1.71125 7.14375 1.5625 6.1875 C1.07899889 2.99274889 1.07899889 2.99274889 0 0 Z " fill="#E6F4F2" transform="translate(105,71)"/>
<path d="M0 0 C2.60018816 3.90028225 2.15085514 7.47434569 2 12 C1.01 12 0.02 12 -1 12 C-2.45606519 7.47907032 -1.27032841 4.48351204 0 0 Z " fill="#11A6E6" transform="translate(47,104)"/>
<path d="M0 0 C0 0.66 0 1.32 0 2 C-0.66 2 -1.32 2 -2 2 C-2 2.99 -2 3.98 -2 5 C-4.88834003 7.10770759 -6.38462395 8 -10 8 C-8.89904638 4.69713914 -8.3103981 4.21489099 -5.5625 2.3125 C-4.94503906 1.87550781 -4.32757813 1.43851563 -3.69140625 0.98828125 C-2 0 -2 0 0 0 Z " fill="#D8E5F5" transform="translate(66,59)"/>
<path d="M0 0 C0 1.65 0 3.3 0 5 C-1.98 5.66 -3.96 6.32 -6 7 C-6.66 5.68 -7.32 4.36 -8 3 C-3.375 0 -3.375 0 0 0 Z " fill="#59CD99" transform="translate(144,52)"/>
<path d="M0 0 C2.97 0.99 5.94 1.98 9 3 C9 3.66 9 4.32 9 5 C7.02 5.33 5.04 5.66 3 6 C0 2.25 0 2.25 0 0 Z " fill="#B3ED29" transform="translate(131,129)"/>
<path d="M0 0 C2.06309376 0.11478413 4.12548354 0.24226198 6.1875 0.375 C7.33605469 0.44460937 8.48460937 0.51421875 9.66796875 0.5859375 C12.79959117 0.97509574 15.15285809 1.6809851 18 3 C18 3.66 18 4.32 18 5 C15.37303769 4.55120234 12.74883107 4.09145886 10.125 3.625 C9.37863281 3.49867187 8.63226563 3.37234375 7.86328125 3.2421875 C2.2265625 2.2265625 2.2265625 2.2265625 0 0 Z " fill="#E8F9DE" transform="translate(144,89)"/>
<path d="M0 0 C0.66 0 1.32 0 2 0 C2.6875 2.3125 2.6875 2.3125 3 5 C2.54625 5.433125 2.0925 5.86625 1.625 6.3125 C-1.03221049 9.07191089 -0.69346145 12.26022965 -1 16 C-1.33 16 -1.66 16 -2 16 C-2.05449838 14.27119018 -2.09301688 12.54187288 -2.125 10.8125 C-2.14820313 9.84957031 -2.17140625 8.88664062 -2.1953125 7.89453125 C-1.9913544 4.87187222 -1.26874632 2.73230015 0 0 Z " fill="#E5FBF0" transform="translate(131,64)"/>
<path d="M0 0 C2.31 0 4.62 0 7 0 C7 0.99 7 1.98 7 3 C3.78548731 4.60725635 0.56387464 4.05748185 -3 4 C-2.34 3.67 -1.68 3.34 -1 3 C-0.67 2.01 -0.34 1.02 0 0 Z " fill="#7DDD3A" transform="translate(83,134)"/>
<path d="M0 0 C-2.77280706 3.08089673 -5.06326356 4.68775452 -9 6 C-9 5.34 -9 4.68 -9 4 C-9.99 3.67 -10.98 3.34 -12 3 C-4.71428571 -0.42857143 -4.71428571 -0.42857143 0 0 Z " fill="#EDF5E4" transform="translate(102,126)"/>
<path d="M0 0 C1.1875 1.625 1.1875 1.625 2 4 C0.625 7.25 0.625 7.25 -1 10 C-2.32 9.01 -3.64 8.02 -5 7 C-4.34 5.35 -3.68 3.7 -3 2 C-2.34 2 -1.68 2 -1 2 C-0.67 1.34 -0.34 0.68 0 0 Z " fill="#8ADF51" transform="translate(114,110)"/>
<path d="M0 0 C0.33 0 0.66 0 1 0 C1.06957368 2.99166845 1.06617906 5.6911644 0.4375 8.625 C-0.02455713 11.13331011 0.2019838 12.60595139 1 15 C0.34 15 -0.32 15 -1 15 C-1 14.34 -1 13.68 -1 13 C-1.99 13 -2.98 13 -4 13 C-2.77443263 8.62297367 -1.46939453 4.30322683 0 0 Z " fill="#E8F5DB" transform="translate(116,109)"/>
<path d="M0 0 C2.42130331 3.63195496 2.21022785 5.38349348 2.125 9.6875 C2.10695313 10.86699219 2.08890625 12.04648438 2.0703125 13.26171875 C2.03550781 14.61716797 2.03550781 14.61716797 2 16 C1.67 16 1.34 16 1 16 C1 13.36 1 10.72 1 8 C0.01 8 -0.98 8 -2 8 C-1.33333333 5.33333333 -0.66666667 2.66666667 0 0 Z " fill="#74D652" transform="translate(116,88)"/>
<path d="M0 0 C1.32 0.33 2.64 0.66 4 1 C3.01 1 2.02 1 1 1 C1 1.99 1 2.98 1 4 C1.99 4.33 2.98 4.66 4 5 C4.33 5.99 4.66 6.98 5 8 C3.35 7.67 1.7 7.34 0 7 C0 6.01 0 5.02 0 4 C-0.66 4 -1.32 4 -2 4 C-2 3.34 -2 2.68 -2 2 C-1.34 2 -0.68 2 0 2 C0 1.34 0 0.68 0 0 Z M5 2 C5 5 5 5 5 5 Z " fill="#F8FBE8" transform="translate(162,88)"/>
<path d="M0 0 C0.66 0.33 1.32 0.66 2 1 C2 1.66 2 2.32 2 3 C2.66 3 3.32 3 4 3 C3 6 2 9 1 12 C0.44191911 10.56879256 -0.09596462 9.12969645 -0.625 7.6875 C-0.92664063 6.88699219 -1.22828125 6.08648437 -1.5390625 5.26171875 C-1.69117188 4.51535156 -1.84328125 3.76898438 -2 3 C-1.34 2.01 -0.68 1.02 0 0 Z " fill="#ACEE42" transform="translate(174,60)"/>
<path d="M0 0 C3.96 0.99 3.96 0.99 8 2 C7.67 2.99 7.34 3.98 7 5 C0.84765625 4.4140625 0.84765625 4.4140625 -1 4 C-1.33 3.34 -1.66 2.68 -2 2 C-1.34 2 -0.68 2 0 2 C0 1.34 0 0.68 0 0 Z " fill="#5ACC77" transform="translate(67,132)"/>
<path d="M0 0 C0.7425 0.61875 1.485 1.2375 2.25 1.875 C4.48801188 3.60437281 6.43739987 4.86106661 9 6 C9 6.66 9 7.32 9 8 C6.69 8 4.38 8 2 8 C2.33 7.34 2.66 6.68 3 6 C1.68 5.34 0.36 4.68 -1 4 C-0.67 2.68 -0.34 1.36 0 0 Z " fill="#DAEFED" transform="translate(54,128)"/>
<path d="M0 0 C0.33 0 0.66 0 1 0 C1 1.65 1 3.3 1 5 C-0.98 5.99 -0.98 5.99 -3 7 C-3 7.66 -3 8.32 -3 9 C-4.65 9.33 -6.3 9.66 -8 10 C-6.75794193 6.27382578 -4.8889325 4.60708543 -2 2 C-1.34 2 -0.68 2 0 2 C0 1.34 0 0.68 0 0 Z " fill="#F1F5D6" transform="translate(178,126)"/>
<path d="M0 0 C0 4.38968456 -2.12805101 5.76905739 -5 9 C-5.33 8.34 -5.66 7.68 -6 7 C-6.66 6.67 -7.32 6.34 -8 6 C-7.360625 5.731875 -6.72125 5.46375 -6.0625 5.1875 C-3.66868314 4.11332248 -3.66868314 4.11332248 -3 1 C-2.01 0.67 -1.02 0.34 0 0 Z " fill="#EAF5E3" transform="translate(108,117)"/>
<path d="M0 0 C-1.32693699 1.00847211 -2.66256277 2.00549539 -4 3 C-4.57878906 3.433125 -5.15757813 3.86625 -5.75390625 4.3125 C-6.37136719 4.76625 -6.98882813 5.22 -7.625 5.6875 C-8.21539063 6.12449219 -8.80578125 6.56148438 -9.4140625 7.01171875 C-11 8 -11 8 -13 8 C-13 7.34 -13 6.68 -13 6 C-11.42578125 4.4921875 -11.42578125 4.4921875 -9.3125 2.875 C-8.62800781 2.33617187 -7.94351562 1.79734375 -7.23828125 1.2421875 C-4.62067341 -0.21051633 -2.94824985 -0.23751225 0 0 Z " fill="#EAEAEA" transform="translate(29,0)"/>
<path d="M0 0 C0.33 0 0.66 0 1 0 C2.33257403 13.6332574 2.33257403 13.6332574 1 20 C-1.67289025 16.12328894 -1.01875653 12.20732397 -0.625 7.75 C-0.56828125 7.00492187 -0.5115625 6.25984375 -0.453125 5.4921875 C-0.31223742 3.66064892 -0.15748116 1.83018648 0 0 Z " fill="#EAFAE4" transform="translate(118,92)"/>
<path d="M0 0 C0.8125 1.6875 0.8125 1.6875 1 4 C-1.1613627 6.51185394 -3.01962439 8.50981219 -6 10 C-6.33 9.01 -6.66 8.02 -7 7 C-6.21625 6.401875 -5.4325 5.80375 -4.625 5.1875 C-1.85425677 3.08914751 -1.85425677 3.08914751 0 0 Z " fill="#E3ECF3" transform="translate(57,55)"/>
<path d="M0 0 C0.99 0.33 1.98 0.66 3 1 C2.67 2.65 2.34 4.3 2 6 C2.99 6 3.98 6 5 6 C5.33 7.98 5.66 9.96 6 12 C2.59156258 9.11593757 1.13408616 7.6291735 0.1875 3.1875 C0.125625 2.135625 0.06375 1.08375 0 0 Z " fill="#E8F8D2" transform="translate(126,115)"/>
<path d="M0 0 C0.33 1.32 0.66 2.64 1 4 C-2.63 3.67 -6.26 3.34 -10 3 C-6.84916414 -0.15083586 -4.41812253 0 0 0 Z " fill="#3482EA" transform="translate(74,52)"/>
<path d="M0 0 C1.32 0.66 2.64 1.32 4 2 C3.34 2.66 2.68 3.32 2 4 C2.66 4.66 3.32 5.32 4 6 C-1.75 5.25 -1.75 5.25 -4 3 C-2.68 2.67 -1.36 2.34 0 2 C0 1.34 0 0.68 0 0 Z " fill="#C6ED63" transform="translate(140,132)"/>
<path d="M0 0 C2.64 0 5.28 0 8 0 C8.66 1.65 9.32 3.3 10 5 C5.05 3.02 5.05 3.02 0 1 C0 0.67 0 0.34 0 0 Z " fill="#C3EF55" transform="translate(160,98)"/>
<path d="M0 0 C2.75 0.25 2.75 0.25 5 1 C4.34 2.32 3.68 3.64 3 5 C0.69 4.67 -1.62 4.34 -4 4 C-2.3125 1.9375 -2.3125 1.9375 0 0 Z " fill="#9AE642" transform="translate(144,90)"/>
<path d="M0 0 C0.99 0 1.98 0 3 0 C3 0.66 3 1.32 3 2 C3.66 1.67 4.32 1.34 5 1 C6.99960012 0.960008 9.00047242 0.95653201 11 1 C9.4375 2.625 9.4375 2.625 7 4 C3.25 3.1875 3.25 3.1875 0 2 C0 1.34 0 0.68 0 0 Z " fill="#E8EEEB" transform="translate(64,129)"/>
<path d="M0 0 C3.3 0.99 6.6 1.98 10 3 C10 3.33 10 3.66 10 4 C5.545 4.495 5.545 4.495 1 5 C0.67 3.35 0.34 1.7 0 0 Z " fill="#EBF7ED" transform="translate(134,91)"/>
<path d="M0 0 C3.16130459 4.21507278 3.3367697 5.06071112 3 10 C2.01 10.495 2.01 10.495 1 11 C0.67 7.37 0.34 3.74 0 0 Z " fill="#21B6B4" transform="translate(110,66)"/>
<path d="M0 0 C-1.485 1.485 -1.485 1.485 -3 3 C-2.01 3.33 -1.02 3.66 0 4 C-1.98 4.33 -3.96 4.66 -6 5 C-6 3.35 -6 1.7 -6 0 C-3.50907189 -1.24546405 -2.58919267 -0.7767578 0 0 Z " fill="#A2E475" transform="translate(94,133)"/>
<path d="M0 0 C1.32 0.66 2.64 1.32 4 2 C2.625 3.5 2.625 3.5 1 5 C0.34 5 -0.32 5 -1 5 C-1 4.34 -1 3.68 -1 3 C-1.66 2.67 -2.32 2.34 -3 2 C-2.01 1.34 -1.02 0.68 0 0 Z " fill="#206BEF" transform="translate(56,60)"/>
<path d="M0 0 C0.66 0.33 1.32 0.66 2 1 C2 2.32 2 3.64 2 5 C3.65 5 5.3 5 7 5 C6.34 5.66 5.68 6.32 5 7 C2.375 6.625 2.375 6.625 0 6 C-1 3 -1 3 0 0 Z " fill="#D7E3FA" transform="translate(27,53)"/>
<path d="M0 0 C0.66 0 1.32 0 2 0 C4.39047894 2.39047894 6 4.54145481 6 8 C5.34 8 4.68 8 4 8 C0 2.58823529 0 2.58823529 0 0 Z " fill="#10AFBB" transform="translate(49,120)"/>
<path d="M0 0 C0.66 0 1.32 0 2 0 C2.66 1.98 3.32 3.96 4 6 C1.69 5.34 -0.62 4.68 -3 4 C-1.625 2 -1.625 2 0 0 Z " fill="#CEF045" transform="translate(176,102)"/>
<path d="M0 0 C2.97 0.495 2.97 0.495 6 1 C6 1.99 6 2.98 6 4 C3.69 3.67 1.38 3.34 -1 3 C-0.67 2.01 -0.34 1.02 0 0 Z " fill="#97E911" transform="translate(148,92)"/>
<path d="M0 0 C1.32 1.65 2.64 3.3 4 5 C2.68 5.99 1.36 6.98 0 8 C-1.125 2.25 -1.125 2.25 0 0 Z " fill="#EAF6EE" transform="translate(124,80)"/>
<path d="M0 0 C1.485 0.99 1.485 0.99 3 2 C2.67 3.98 2.34 5.96 2 8 C1.01 7.67 0.02 7.34 -1 7 C-0.67 4.69 -0.34 2.38 0 0 Z " fill="#32BB8C" transform="translate(126,64)"/>
<path d="M0 0 C2.97 0.33 5.94 0.66 9 1 C8.67 2.32 8.34 3.64 8 5 C4.35446828 3.7191375 2.83328987 2.83328987 0 0 Z " fill="#2BC08E" transform="translate(58,131)"/>
<path d="M0 0 C0.33 0 0.66 0 1 0 C1.08159574 4.16138263 0.98248524 7.9472484 0 12 C-0.33 12 -0.66 12 -1 12 C-1.33 9.36 -1.66 6.72 -2 4 C-1.34 4 -0.68 4 0 4 C0 2.68 0 1.36 0 0 Z " fill="#0399F4" transform="translate(46,100)"/>
<path d="M0 0 C1.32 0.33 2.64 0.66 4 1 C3.67 2.32 3.34 3.64 3 5 C2.01 4.67 1.02 4.34 0 4 C0 2.68 0 1.36 0 0 Z " fill="#57D365" transform="translate(128,82)"/>
<path d="M0 0 C0.66 0 1.32 0 2 0 C2.33 1.32 2.66 2.64 3 4 C2.01 4.495 2.01 4.495 1 5 C1 4.34 1 3.68 1 3 C0.34 3 -0.32 3 -1 3 C-1 3.66 -1 4.32 -1 5 C-1.66 5 -2.32 5 -3 5 C-1.125 1.125 -1.125 1.125 0 0 Z " fill="#175DE3" transform="translate(53,63)"/>
<path d="M0 0 C0 0.66 0 1.32 0 2 C-2.31 2 -4.62 2 -7 2 C-7.33 1.34 -7.66 0.68 -8 0 C-4.94736336 -0.98120464 -3.05263664 -0.98120464 0 0 Z " fill="#0A69EE" transform="translate(72,55)"/>
</svg>
